<?xml version="1.0" encoding="utf-8"?>
<!-- Generator: Adobe Illustrator 16.0.4, SVG Export Plug-In . SVG Version: 6.00 Build 0)  -->
<!DOCTYPE svg PUBLIC "-//W3C//DTD SVG 1.1//EN" "http://www.w3.org/Graphics/SVG/1.1/DTD/svg11.dtd">
<svg version="1.1" id="Layer_1" xmlns="http://www.w3.org/2000/svg" xmlns:xlink="http://www.w3.org/1999/xlink" x="0px" y="0px"
	 width="360px" height="360px" viewBox="0 0 360 360" enable-background="new 0 0 360 360" xml:space="preserve">
<g>
	<g>
		<g>
			<circle fill="#FFFFFF" cx="177.284" cy="172.638" r="142.3"/>
			<path fill="#FFF200" d="M177.284,318.936c-80.67,0-146.299-65.629-146.299-146.296c0-80.669,65.629-146.298,146.299-146.298
				c80.67,0,146.3,65.629,146.3,146.298C323.584,253.307,257.954,318.936,177.284,318.936z M177.284,34.34
				c-76.258,0-138.299,62.04-138.299,138.298s62.041,138.297,138.299,138.297c76.259,0,138.3-62.039,138.3-138.297
				S253.543,34.34,177.284,34.34z"/>
		</g>
	</g>
	<defs>
		<filter id="Adobe_OpacityMaskFilter" filterUnits="userSpaceOnUse" x="18.867" y="14.14" width="331.211" height="330.947">
			<feColorMatrix  type="matrix" values="1 0 0 0 0  0 1 0 0 0  0 0 1 0 0  0 0 0 1 0"/>
		</filter>
	</defs>
	<mask maskUnits="userSpaceOnUse" x="18.867" y="14.14" width="331.211" height="330.947" id="SVGID_1_">
		<g filter="url(#Adobe_OpacityMaskFilter)">
		</g>
	</mask>
	<g opacity="0.75" mask="url(#SVGID_1_)">
		<path fill="#FFFFFF" d="M349.944,175.06c-0.052-0.315-0.24-0.532-0.24-0.96c0-0.24,0-0.48,0-0.72c0-0.48,0-0.96,0-1.44
			c0-0.464,0.062-0.981,0-1.44c-0.076-0.545-0.239-0.855-0.239-1.44c0-1.121-0.1-2.116-0.24-3.12c-0.064-0.471,0.066-0.969,0-1.44
			c-0.074-0.545-0.238-0.855-0.238-1.44c0-2.041-0.437-4.064-0.722-6c-0.088-0.592-0.164-1.166-0.238-1.68
			c-0.034-0.235,0.031-0.485,0-0.72c-0.038-0.272-0.21-0.534-0.24-0.72c-0.037-0.234,0.033-0.485,0-0.72
			c-0.038-0.271-0.21-0.534-0.239-0.72c-0.038-0.234,0.032-0.485,0-0.72c-0.039-0.272-0.211-0.534-0.24-0.72
			c-0.094-0.583-0.165-1.171-0.238-1.68c-0.077-0.525-0.175-0.984-0.24-1.44c-0.148-1.004-0.331-1.876-0.479-2.88
			c-0.082-0.551-0.397-1.129-0.479-1.68c-0.079-0.535-0.076-0.949-0.24-1.44c-0.31-0.93-0.411-1.954-0.72-2.88
			c-0.338-1.014-0.382-2.105-0.72-3.12c-0.316-0.949-0.646-1.932-0.962-2.88c-0.337-1.01-0.55-2.054-0.72-3.12
			c-0.003-0.019-0.209-0.625-0.24-0.72c-0.07-0.218-0.157-0.478-0.238-0.72c-0.157-0.472-0.316-0.95-0.479-1.44
			c-0.67-2.008-1.49-3.99-2.16-6c-0.681-2.04-1.723-3.968-2.398-6c-0.687-2.054-1.691-4.053-2.642-6
			c-0.972-1.992-1.904-4.001-2.88-6c-0.51-1.045-1.034-2.151-1.681-3.12c-0.318-0.478-0.479-0.945-0.72-1.44
			c-0.251-0.515-0.709-0.925-0.96-1.44c-0.501-1.027-1.043-2.165-1.682-3.12c-0.32-0.484-0.638-0.957-0.96-1.44
			c-0.268-0.4-0.731-0.979-0.96-1.44c-1.047-2.119-2.501-3.99-3.841-6c-1.354-2.033-2.939-3.931-4.319-6
			c-1.408-2.114-3.145-3.977-4.8-6c-0.841-1.026-1.667-2.146-2.641-3.12c-0.88-0.88-1.81-1.875-2.642-2.88
			c-3.366-4.065-7.618-8.176-11.76-11.52c-1.083-0.874-2.057-1.874-3.118-2.76c-0.94-0.784-1.94-1.51-2.882-2.28
			c-1.961-1.605-3.983-3.047-6-4.56c-3.838-2.879-7.827-5.632-12-8.04c-7.704-4.447-15.728-8.465-24-11.88
			c-3.897-1.609-7.963-2.928-12-4.16c-1.993-0.609-3.999-1.176-6-1.76c-1.989-0.58-4.057-0.911-6-1.64h-1.198
			c-0.32-0.16-0.643-0.32-0.961-0.48h-1.199c0-0.08,0-0.16,0-0.24h-0.961c0-0.08,0-0.16,0-0.24h-1.199c0-0.08,0-0.16,0-0.24h-1.439
			c0-0.08,0-0.16,0-0.24h-1.439c0-0.08,0-0.16,0-0.24h-1.439c0-0.08,0-0.16,0-0.24h-1.438c0-0.08,0-0.16,0-0.24h-1.44
			c0-0.08,0-0.16,0-0.24h-1.681c0-0.08,0-0.16,0-0.24h-1.68c0-0.08,0-0.16,0-0.24h-1.92c0-0.08,0-0.16,0-0.24h-2.16
			c0-0.08,0-0.16,0-0.24h-2.399c0-0.08,0-0.16,0-0.24h-2.64c0-0.08,0-0.16,0-0.24h-3.84c0-0.08,0-0.16,0-0.24h-5.281
			c0-0.08,0-0.16,0-0.24h-7.439c0,0.08,0,0.16,0,0.24h-5.28c0,0.08,0,0.16,0,0.24h-3.6c0,0.08,0,0.16,0,0.24h-2.88
			c0,0.08,0,0.16,0,0.24h-2.4c0,0.08,0,0.16,0,0.24h-2.16c0,0.08,0,0.16,0,0.24h-1.92c0,0.08,0,0.16,0,0.24h-1.68
			c0,0.08,0,0.16,0,0.24h-1.68c0,0.08,0,0.16,0,0.24h-1.44c0,0.08,0,0.16,0,0.24h-1.44c0,0.08,0,0.16,0,0.24h-1.44
			c0,0.08,0,0.16,0,0.24h-1.44c0,0.08,0,0.16,0,0.24h-1.2c0,0.08,0,0.16,0,0.24h-1.2c0,0.08,0,0.16,0,0.24h-1.2
			c0,0.08,0,0.16,0,0.24h-1.2c-0.32,0.16-0.64,0.32-0.96,0.48h-1.2c-2.548,0.956-5.306,1.438-7.92,2.2
			c-8.156,2.378-16.397,5.039-24,8.84c-4.025,2.013-8.117,3.889-12,6.12c-4.117,2.366-8.078,4.826-12,7.44
			c-8.641,5.761-16.564,12.485-24,19.92c-3.877,3.876-7.424,7.877-10.8,12c-3.137,3.831-5.955,7.972-8.64,12
			c-0.717,1.075-1.456,2.063-2.16,3.12c-0.604,0.907-1.08,1.98-1.68,2.88c-0.699,1.047-1.233,2.09-1.92,3.12
			c-0.285,0.428-0.498,0.983-0.72,1.44c-0.251,0.515-0.709,0.925-0.96,1.44c-1.961,4.023-4.02,7.994-6,12
			c-0.134,0.271-0.104,0.68-0.24,0.96c-0.135,0.278-0.343,0.442-0.48,0.72c-0.051,0.103-0.21,0.633-0.24,0.72
			c-0.087,0.26-0.153,0.46-0.24,0.72c-0.327,0.982-0.869,1.888-1.2,2.88c-0.676,2.029-1.724,3.971-2.4,6
			c-0.666,1.997-1.252,3.995-1.92,6c-0.649,1.947-1.35,3.932-1.68,6c-0.039,0.241-0.442,0.719-0.48,0.96
			c-0.038,0.234,0.037,0.486,0,0.72c-0.003,0.018-0.208,0.625-0.24,0.72c-0.086,0.26-0.153,0.46-0.24,0.72
			c-0.313,0.94-0.409,1.947-0.72,2.88c-0.19,0.569-0.141,1.057-0.24,1.68c-0.069,0.431-0.413,0.985-0.48,1.44
			c-0.148,1.004-0.332,1.876-0.48,2.88c-0.043,0.293-0.14,0.659-0.24,0.96c-0.032,0.095-0.237,0.702-0.24,0.72
			c-0.037,0.234,0.033,0.485,0,0.72c-0.038,0.272-0.21,0.533-0.24,0.72c-0.038,0.234,0.033,0.485,0,0.72
			c-0.038,0.272-0.21,0.534-0.24,0.72c-0.037,0.234,0.033,0.485,0,0.72c-0.038,0.272-0.21,0.534-0.24,0.72
			c-0.324,2.032-0.434,3.961-0.72,6c-0.137,0.978-0.337,2.154-0.48,3.12c-0.069,0.47,0.066,0.97,0,1.44
			c-0.076,0.545-0.24,0.855-0.24,1.44c0,1.141-0.24,2.05-0.24,3.12c0,0.48,0,0.96,0,1.44c0,0.594-0.166,0.938-0.24,1.44
			c-0.146,0.99,0,2.117,0,3.12c0,1.067-0.24,1.872-0.24,2.88c0,1.929-0.281,4.094,0,6c0.083,0.562,0.24,1.016,0.24,1.681
			c0,0.479,0,0.96,0,1.438c0,0.479,0,0.961,0,1.439c0,0.594,0.166,0.938,0.24,1.438c0.301,2.039-0.081,3.992,0.24,6
			c0.05,0.316,0.24,0.532,0.24,0.961c0,0.24,0,0.479,0,0.722c0,0.585,0.164,0.896,0.24,1.438c0.144,1.022,0.098,1.869,0.24,2.879
			c0.279,1.987,0.683,4.024,0.96,6c1.16,8.258,3.194,16.305,5.76,24c0.669,2.008,1.252,3.998,1.92,6c0.677,2.03,1.723,3.972,2.4,6
			c0.685,2.056,1.691,4.056,2.64,6c0.251,0.519,0.539,1.138,0.72,1.683c0.178,0.534,0.473,0.934,0.72,1.438
			c0.468,0.959,0.967,1.909,1.44,2.879c0.974,1.998,1.872,4.129,3.12,6c0.637,0.955,1.179,2.094,1.68,3.121
			c0.486,0.996,1.195,1.897,1.68,2.879c0.292,0.592,0.841,1.144,1.2,1.683c0.303,0.454,0.631,0.944,0.96,1.438
			c0.6,0.899,1.075,1.973,1.68,2.879c1.377,2.065,2.958,3.959,4.32,6c1.415,2.123,3.143,4,4.8,6c1.612,1.946,3.206,4.166,5.04,6
			c3.851,3.853,7.673,8.045,11.76,11.762c3.827,3.48,7.881,6.75,12,9.841c3.813,2.858,7.858,5.647,12,8.04
			c7.717,4.453,15.607,8.865,24,12.119c3.966,1.537,7.952,2.972,12,4.318c3.939,1.313,8.119,2.024,12,3.48h1.2
			c0,0.08,0,0.16,0,0.238h0.96c0,0.08,0,0.16,0,0.24h1.2c0,0.079,0,0.159,0,0.239h0.96c0,0.08,0,0.16,0,0.24h1.2
			c0,0.08,0,0.159,0,0.239h1.2c0,0.078,0,0.158,0,0.238h1.2c0,0.08,0,0.16,0,0.24h1.44c0,0.08,0,0.16,0,0.24h1.44
			c0,0.08,0,0.16,0,0.24h1.44c0,0.078,0,0.158,0,0.238h1.44c0,0.079,0,0.159,0,0.239h1.68c0,0.08,0,0.16,0,0.24h1.68
			c0,0.079,0,0.159,0,0.239h1.92c0,0.08,0,0.158,0,0.238h2.16c0,0.08,0,0.16,0,0.24h2.4c0,0.08,0,0.16,0,0.24h2.64
			c0,0.08,0,0.16,0,0.24h3.36c0,0.08,0,0.158,0,0.237h5.28c0,0.08,0,0.16,0,0.24h9.12c0-0.08,0-0.16,0-0.24h5.039
			c0-0.079,0-0.157,0-0.237h3.359c0-0.08,0-0.16,0-0.24h2.641c0-0.08,0-0.16,0-0.24h2.398c0-0.08,0-0.16,0-0.24h2.16
			c0-0.08,0-0.158,0-0.238h1.92c0-0.08,0-0.16,0-0.239h1.682c0-0.08,0-0.16,0-0.24h1.681c0-0.08,0-0.16,0-0.239h1.44
			c0-0.08,0-0.16,0-0.238h1.438c0-0.08,0-0.16,0-0.24h1.439c0-0.08,0-0.16,0-0.24h1.438c0-0.08,0-0.16,0-0.24h1.2
			c0-0.08,0-0.16,0-0.238h1.199c0-0.08,0-0.159,0-0.239h1.201c0-0.08,0-0.16,0-0.24h1.198c0-0.08,0-0.16,0-0.239h0.96
			c0-0.08,0-0.16,0-0.24h1.199c0-0.078,0-0.158,0-0.238h0.96c2.627-0.984,5.466-1.496,8.16-2.28c8.176-2.379,16.388-5.313,24-9.12
			c8.321-4.16,16.626-8.388,24-13.92c1.969-1.477,4.021-2.849,6-4.32c2.054-1.526,4.026-3.154,6-4.799
			c2.024-1.688,4.129-3.41,6-5.281c1.946-1.944,4.228-3.614,6-5.76c1.664-2.009,3.639-3.979,5.28-6c1.668-2.051,3.603-3.844,5.04-6
			c1.398-2.101,3.168-3.912,4.56-6c1.336-2.002,2.748-4.002,4.08-6c0.68-1.02,1.25-2.113,1.92-3.119
			c0.322-0.482,0.638-0.957,0.96-1.438c0.302-0.451,0.714-0.938,0.96-1.438c0.515-1.041,1.026-2.141,1.681-3.121
			c0.318-0.479,0.479-0.943,0.722-1.438c0.251-0.517,0.709-0.925,0.96-1.44c0.98-2.016,2.121-3.979,3.12-6
			c0.134-0.271,0.104-0.681,0.238-0.959c0.137-0.276,0.347-0.441,0.479-0.721c0.23-0.477,0.48-0.953,0.72-1.439
			c0.219-0.447,0.262-0.99,0.48-1.438c0.247-0.507,0.542-0.903,0.72-1.438c0.363-1.088,0.931-2.09,1.438-3.121
			c0.053-0.104,0.213-0.631,0.24-0.719c0.086-0.262,0.153-0.461,0.239-0.722c0.087-0.26,0.153-0.46,0.24-0.721
			c0.027-0.089,0.188-0.616,0.238-0.722c0.511-1.027,0.839-2.027,1.2-3.119c0.324-0.975,0.874-1.902,1.199-2.881
			c0.664-1.987,1.257-4.008,1.921-6c0.656-1.969,1.022-4.025,1.68-6c0.638-1.905,1.144-3.979,1.439-6
			c0.082-0.551,0.399-1.129,0.48-1.68c0.077-0.535,0.074-0.947,0.238-1.439c0.312-0.932,0.32-1.881,0.479-2.881
			c0.217-0.104,0.297-0.264,0.24-0.479c0-0.16,0-0.32,0-0.48c0.036-0.271,0.21-0.533,0.238-0.72c0.037-0.233-0.031-0.485,0-0.72
			c0.038-0.271,0.21-0.534,0.24-0.721c0.037-0.233-0.033-0.484,0-0.721c0.038-0.271,0.21-0.533,0.239-0.721
			c0.038-0.232-0.032-0.484,0-0.721c0.038-0.271,0.211-0.533,0.24-0.721c0.174-1.088,0.064-2.033,0.238-3.121
			c0.029-0.187,0.201-0.445,0.24-0.719c0.032-0.236-0.033-0.484,0-0.721c0.076-0.545,0.239-0.855,0.239-1.439
			c0-0.666,0.157-1.119,0.24-1.681c0.067-0.47-0.069-0.971,0-1.44c0.072-0.502,0.238-0.846,0.238-1.438c0-0.463-0.065-0.982,0-1.439
			c0.083-0.562,0.24-1.016,0.24-1.681c0-0.465-0.062-0.979,0-1.438c0.131-0.937,0.239-1.834,0.239-2.881c0-2.088,0.24-3.893,0.24-6
			C349.944,179.142,350.246,176.95,349.944,175.06z"/>
		<g>
			<circle fill="#FFFFFF" cx="177.284" cy="172.638" r="142.3"/>
			<path fill="#FFFFFF" d="M177.284,318.936c-80.67,0-146.299-65.629-146.299-146.296c0-80.669,65.629-146.298,146.299-146.298
				c80.67,0,146.3,65.629,146.3,146.298C323.584,253.307,257.954,318.936,177.284,318.936z M177.284,34.34
				c-76.258,0-138.299,62.04-138.299,138.298s62.041,138.297,138.299,138.297c76.259,0,138.3-62.039,138.3-138.297
				S253.543,34.34,177.284,34.34z"/>
		</g>
	</g>
</g>
<g>
	<path fill="#FFFFFF" d="M349.944,175.06c-0.052-0.315-0.24-0.532-0.24-0.96c0-0.24,0-0.48,0-0.72c0-0.48,0-0.96,0-1.44
		c0-0.464,0.062-0.981,0-1.44c-0.076-0.545-0.239-0.855-0.239-1.44c0-1.121-0.1-2.116-0.24-3.12c-0.064-0.471,0.066-0.969,0-1.44
		c-0.074-0.545-0.238-0.855-0.238-1.44c0-2.041-0.437-4.064-0.722-6c-0.088-0.592-0.164-1.166-0.238-1.68
		c-0.034-0.235,0.031-0.485,0-0.72c-0.038-0.272-0.21-0.534-0.24-0.72c-0.037-0.234,0.033-0.485,0-0.72
		c-0.038-0.271-0.21-0.534-0.239-0.72c-0.038-0.234,0.032-0.485,0-0.72c-0.039-0.272-0.211-0.534-0.24-0.72
		c-0.094-0.583-0.165-1.171-0.238-1.68c-0.077-0.525-0.175-0.984-0.24-1.44c-0.148-1.004-0.331-1.876-0.479-2.88
		c-0.082-0.551-0.397-1.129-0.479-1.68c-0.079-0.535-0.076-0.949-0.24-1.44c-0.31-0.93-0.411-1.954-0.72-2.88
		c-0.338-1.014-0.382-2.105-0.72-3.12c-0.316-0.949-0.646-1.932-0.962-2.88c-0.337-1.01-0.55-2.054-0.72-3.12
		c-0.003-0.019-0.209-0.625-0.24-0.72c-0.07-0.218-0.157-0.478-0.238-0.72c-0.157-0.472-0.316-0.95-0.479-1.44
		c-0.67-2.008-1.49-3.99-2.16-6c-0.681-2.04-1.723-3.968-2.398-6c-0.687-2.054-1.691-4.053-2.642-6c-0.972-1.992-1.904-4.001-2.88-6
		c-0.51-1.045-1.034-2.151-1.681-3.12c-0.318-0.478-0.479-0.945-0.72-1.44c-0.251-0.515-0.709-0.925-0.96-1.44
		c-0.501-1.027-1.043-2.165-1.682-3.12c-0.32-0.484-0.638-0.957-0.96-1.44c-0.268-0.4-0.731-0.979-0.96-1.44
		c-1.047-2.119-2.501-3.99-3.841-6c-1.354-2.033-2.939-3.931-4.319-6c-1.408-2.114-3.145-3.977-4.8-6
		c-0.841-1.026-1.667-2.146-2.641-3.12c-0.88-0.88-1.81-1.875-2.642-2.88c-3.366-4.065-7.618-8.176-11.76-11.52
		c-1.083-0.874-2.057-1.874-3.118-2.76c-0.94-0.784-1.94-1.51-2.882-2.28c-1.961-1.605-3.983-3.047-6-4.56
		c-3.838-2.879-7.827-5.632-12-8.04c-7.704-4.447-15.728-8.465-24-11.88c-3.897-1.609-7.963-2.928-12-4.16
		c-1.993-0.609-3.999-1.176-6-1.76c-1.989-0.58-4.057-0.911-6-1.64h-1.198c-0.32-0.16-0.643-0.32-0.961-0.48h-1.199
		c0-0.08,0-0.16,0-0.24h-0.961c0-0.08,0-0.16,0-0.24h-1.199c0-0.08,0-0.16,0-0.24h-1.439c0-0.08,0-0.16,0-0.24h-1.439
		c0-0.08,0-0.16,0-0.24h-1.439c0-0.08,0-0.16,0-0.24h-1.438c0-0.08,0-0.16,0-0.24h-1.44c0-0.08,0-0.16,0-0.24h-1.681
		c0-0.08,0-0.16,0-0.24h-1.68c0-0.08,0-0.16,0-0.24h-1.92c0-0.08,0-0.16,0-0.24h-2.16c0-0.08,0-0.16,0-0.24h-2.399
		c0-0.08,0-0.16,0-0.24h-2.64c0-0.08,0-0.16,0-0.24h-3.84c0-0.08,0-0.16,0-0.24h-5.281c0-0.08,0-0.16,0-0.24h-7.439
		c0,0.08,0,0.16,0,0.24h-5.28c0,0.08,0,0.16,0,0.24h-3.6c0,0.08,0,0.16,0,0.24h-2.88c0,0.08,0,0.16,0,0.24h-2.4
		c0,0.08,0,0.16,0,0.24h-2.16c0,0.08,0,0.16,0,0.24h-1.92c0,0.08,0,0.16,0,0.24h-1.68c0,0.08,0,0.16,0,0.24h-1.68
		c0,0.08,0,0.16,0,0.24h-1.44c0,0.08,0,0.16,0,0.24h-1.44c0,0.08,0,0.16,0,0.24h-1.44c0,0.08,0,0.16,0,0.24h-1.44
		c0,0.08,0,0.16,0,0.24h-1.2c0,0.08,0,0.16,0,0.24h-1.2c0,0.08,0,0.16,0,0.24h-1.2c0,0.08,0,0.16,0,0.24h-1.2
		c-0.32,0.16-0.64,0.32-0.96,0.48h-1.2c-2.548,0.956-5.306,1.438-7.92,2.2c-8.156,2.378-16.397,5.039-24,8.84
		c-4.025,2.013-8.117,3.889-12,6.12c-4.117,2.366-8.078,4.826-12,7.44c-8.641,5.761-16.564,12.485-24,19.92
		c-3.877,3.876-7.424,7.877-10.8,12c-3.137,3.831-5.955,7.972-8.64,12c-0.717,1.075-1.456,2.063-2.16,3.12
		c-0.604,0.907-1.08,1.98-1.68,2.88c-0.699,1.047-1.233,2.09-1.92,3.12c-0.285,0.428-0.498,0.983-0.72,1.44
		c-0.251,0.515-0.709,0.925-0.96,1.44c-1.961,4.023-4.02,7.994-6,12c-0.134,0.271-0.104,0.68-0.24,0.96
		c-0.135,0.278-0.343,0.442-0.48,0.72c-0.051,0.103-0.21,0.633-0.24,0.72c-0.087,0.26-0.153,0.46-0.24,0.72
		c-0.327,0.982-0.869,1.888-1.2,2.88c-0.676,2.029-1.724,3.971-2.4,6c-0.666,1.997-1.252,3.995-1.92,6
		c-0.649,1.947-1.35,3.932-1.68,6c-0.039,0.241-0.442,0.719-0.48,0.96c-0.038,0.234,0.037,0.486,0,0.72
		c-0.003,0.018-0.208,0.625-0.24,0.72c-0.086,0.26-0.153,0.46-0.24,0.72c-0.313,0.94-0.409,1.947-0.72,2.88
		c-0.19,0.569-0.141,1.057-0.24,1.68c-0.069,0.431-0.413,0.985-0.48,1.44c-0.148,1.004-0.332,1.876-0.48,2.88
		c-0.043,0.293-0.14,0.659-0.24,0.96c-0.032,0.095-0.237,0.702-0.24,0.72c-0.037,0.234,0.033,0.485,0,0.72
		c-0.038,0.272-0.21,0.533-0.24,0.72c-0.038,0.234,0.033,0.485,0,0.72c-0.038,0.272-0.21,0.534-0.24,0.72
		c-0.037,0.234,0.033,0.485,0,0.72c-0.038,0.272-0.21,0.534-0.24,0.72c-0.324,2.032-0.434,3.961-0.72,6
		c-0.137,0.978-0.337,2.154-0.48,3.12c-0.069,0.47,0.066,0.97,0,1.44c-0.076,0.545-0.24,0.855-0.24,1.44
		c0,1.141-0.24,2.05-0.24,3.12c0,0.48,0,0.96,0,1.44c0,0.594-0.166,0.938-0.24,1.44c-0.146,0.99,0,2.117,0,3.12
		c0,1.067-0.24,1.872-0.24,2.88c0,1.929-0.281,4.094,0,6c0.083,0.562,0.24,1.016,0.24,1.681c0,0.479,0,0.96,0,1.438
		c0,0.479,0,0.961,0,1.439c0,0.594,0.166,0.938,0.24,1.438c0.301,2.039-0.081,3.992,0.24,6c0.05,0.316,0.24,0.532,0.24,0.961
		c0,0.24,0,0.479,0,0.722c0,0.585,0.164,0.896,0.24,1.438c0.144,1.022,0.098,1.869,0.24,2.879c0.279,1.987,0.683,4.024,0.96,6
		c1.16,8.258,3.194,16.305,5.76,24c0.669,2.008,1.252,3.998,1.92,6c0.677,2.03,1.723,3.972,2.4,6c0.685,2.056,1.691,4.056,2.64,6
		c0.251,0.519,0.539,1.138,0.72,1.683c0.178,0.534,0.473,0.934,0.72,1.438c0.468,0.959,0.967,1.909,1.44,2.879
		c0.974,1.998,1.872,4.129,3.12,6c0.637,0.955,1.179,2.094,1.68,3.121c0.486,0.996,1.195,1.897,1.68,2.879
		c0.292,0.592,0.841,1.144,1.2,1.683c0.303,0.454,0.631,0.944,0.96,1.438c0.6,0.899,1.075,1.973,1.68,2.879
		c1.377,2.065,2.958,3.959,4.32,6c1.415,2.123,3.143,4,4.8,6c1.612,1.946,3.206,4.166,5.04,6c3.851,3.853,7.673,8.045,11.76,11.762
		c3.827,3.48,7.881,6.75,12,9.841c3.813,2.858,7.858,5.647,12,8.04c7.717,4.453,15.607,8.865,24,12.119
		c3.966,1.537,7.952,2.972,12,4.318c3.939,1.313,8.119,2.024,12,3.48h1.2c0,0.08,0,0.16,0,0.238h0.96c0,0.08,0,0.16,0,0.24h1.2
		c0,0.079,0,0.159,0,0.239h0.96c0,0.08,0,0.16,0,0.24h1.2c0,0.08,0,0.159,0,0.239h1.2c0,0.078,0,0.158,0,0.238h1.2
		c0,0.08,0,0.16,0,0.24h1.44c0,0.08,0,0.16,0,0.24h1.44c0,0.08,0,0.16,0,0.24h1.44c0,0.078,0,0.158,0,0.238h1.44
		c0,0.079,0,0.159,0,0.239h1.68c0,0.08,0,0.16,0,0.24h1.68c0,0.079,0,0.159,0,0.239h1.92c0,0.08,0,0.158,0,0.238h2.16
		c0,0.08,0,0.16,0,0.24h2.4c0,0.08,0,0.16,0,0.24h2.64c0,0.08,0,0.16,0,0.24h3.36c0,0.08,0,0.158,0,0.237h5.28c0,0.08,0,0.16,0,0.24
		h9.12c0-0.08,0-0.16,0-0.24h5.039c0-0.079,0-0.157,0-0.237h3.359c0-0.08,0-0.16,0-0.24h2.641c0-0.08,0-0.16,0-0.24h2.398
		c0-0.08,0-0.16,0-0.24h2.16c0-0.08,0-0.158,0-0.238h1.92c0-0.08,0-0.16,0-0.239h1.682c0-0.08,0-0.16,0-0.24h1.681
		c0-0.08,0-0.16,0-0.239h1.44c0-0.08,0-0.16,0-0.238h1.438c0-0.08,0-0.16,0-0.24h1.439c0-0.08,0-0.16,0-0.24h1.438
		c0-0.08,0-0.16,0-0.24h1.2c0-0.08,0-0.16,0-0.238h1.199c0-0.08,0-0.159,0-0.239h1.201c0-0.08,0-0.16,0-0.24h1.198
		c0-0.08,0-0.16,0-0.239h0.96c0-0.08,0-0.16,0-0.24h1.199c0-0.078,0-0.158,0-0.238h0.96c2.627-0.984,5.466-1.496,8.16-2.28
		c8.176-2.379,16.388-5.313,24-9.12c8.321-4.16,16.626-8.388,24-13.92c1.969-1.477,4.021-2.849,6-4.32
		c2.054-1.526,4.026-3.154,6-4.799c2.024-1.688,4.129-3.41,6-5.281c1.946-1.944,4.228-3.614,6-5.76c1.664-2.009,3.639-3.979,5.28-6
		c1.668-2.051,3.603-3.844,5.04-6c1.398-2.101,3.168-3.912,4.56-6c1.336-2.002,2.748-4.002,4.08-6c0.68-1.02,1.25-2.113,1.92-3.119
		c0.322-0.482,0.638-0.957,0.96-1.438c0.302-0.451,0.714-0.938,0.96-1.438c0.515-1.041,1.026-2.141,1.681-3.121
		c0.318-0.479,0.479-0.943,0.722-1.438c0.251-0.517,0.709-0.925,0.96-1.44c0.98-2.016,2.121-3.979,3.12-6
		c0.134-0.271,0.104-0.681,0.238-0.959c0.137-0.276,0.347-0.441,0.479-0.721c0.23-0.477,0.48-0.953,0.72-1.439
		c0.219-0.447,0.262-0.99,0.48-1.438c0.247-0.507,0.542-0.903,0.72-1.438c0.363-1.088,0.931-2.09,1.438-3.121
		c0.053-0.104,0.213-0.631,0.24-0.719c0.086-0.262,0.153-0.461,0.239-0.722c0.087-0.26,0.153-0.46,0.24-0.721
		c0.027-0.089,0.188-0.616,0.238-0.722c0.511-1.027,0.839-2.027,1.2-3.119c0.324-0.975,0.874-1.902,1.199-2.881
		c0.664-1.987,1.257-4.008,1.921-6c0.656-1.969,1.022-4.025,1.68-6c0.638-1.905,1.144-3.979,1.439-6
		c0.082-0.551,0.399-1.129,0.48-1.68c0.077-0.535,0.074-0.947,0.238-1.439c0.312-0.932,0.32-1.881,0.479-2.881
		c0.217-0.104,0.297-0.264,0.24-0.479c0-0.16,0-0.32,0-0.48c0.036-0.271,0.21-0.533,0.238-0.72c0.037-0.233-0.031-0.485,0-0.72
		c0.038-0.271,0.21-0.534,0.24-0.721c0.037-0.233-0.033-0.484,0-0.721c0.038-0.271,0.21-0.533,0.239-0.721
		c0.038-0.232-0.032-0.484,0-0.721c0.038-0.271,0.211-0.533,0.24-0.721c0.174-1.088,0.064-2.033,0.238-3.121
		c0.029-0.187,0.201-0.445,0.24-0.719c0.032-0.236-0.033-0.484,0-0.721c0.076-0.545,0.239-0.855,0.239-1.439
		c0-0.666,0.157-1.119,0.24-1.681c0.067-0.47-0.069-0.971,0-1.44c0.072-0.502,0.238-0.846,0.238-1.438c0-0.463-0.065-0.982,0-1.439
		c0.083-0.562,0.24-1.016,0.24-1.681c0-0.465-0.062-0.979,0-1.438c0.131-0.937,0.239-1.834,0.239-2.881c0-2.088,0.24-3.893,0.24-6
		C349.944,179.142,350.246,176.95,349.944,175.06z"/>
	<g>
		<circle fill="#FFFFFF" cx="177.284" cy="172.638" r="142.3"/>
		<path fill="#FFFFFF" d="M177.284,318.936c-80.67,0-146.299-65.629-146.299-146.296c0-80.669,65.629-146.298,146.299-146.298
			c80.67,0,146.3,65.629,146.3,146.298C323.584,253.307,257.954,318.936,177.284,318.936z M177.284,34.34
			c-76.258,0-138.299,62.04-138.299,138.298s62.041,138.297,138.299,138.297c76.259,0,138.3-62.039,138.3-138.297
			S253.543,34.34,177.284,34.34z"/>
	</g>
</g>
<g opacity="0.75">
	<path fill="#FFFFFF" d="M349.944,175.06c-0.052-0.315-0.24-0.532-0.24-0.96c0-0.24,0-0.48,0-0.72c0-0.48,0-0.96,0-1.44
		c0-0.464,0.062-0.981,0-1.44c-0.076-0.545-0.239-0.855-0.239-1.44c0-1.121-0.1-2.116-0.24-3.12c-0.064-0.471,0.066-0.969,0-1.44
		c-0.074-0.545-0.238-0.855-0.238-1.44c0-2.041-0.437-4.064-0.722-6c-0.088-0.592-0.164-1.166-0.238-1.68
		c-0.034-0.235,0.031-0.485,0-0.72c-0.038-0.272-0.21-0.534-0.24-0.72c-0.037-0.234,0.033-0.485,0-0.72
		c-0.038-0.271-0.21-0.534-0.239-0.72c-0.038-0.234,0.032-0.485,0-0.72c-0.039-0.272-0.211-0.534-0.24-0.72
		c-0.094-0.583-0.165-1.171-0.238-1.68c-0.077-0.525-0.175-0.984-0.24-1.44c-0.148-1.004-0.331-1.876-0.479-2.88
		c-0.082-0.551-0.397-1.129-0.479-1.68c-0.079-0.535-0.076-0.949-0.24-1.44c-0.31-0.93-0.411-1.954-0.72-2.88
		c-0.338-1.014-0.382-2.105-0.72-3.12c-0.316-0.949-0.646-1.932-0.962-2.88c-0.337-1.01-0.55-2.054-0.72-3.12
		c-0.003-0.019-0.209-0.625-0.24-0.72c-0.07-0.218-0.157-0.478-0.238-0.72c-0.157-0.472-0.316-0.95-0.479-1.44
		c-0.67-2.008-1.49-3.99-2.16-6c-0.681-2.04-1.723-3.968-2.398-6c-0.687-2.054-1.691-4.053-2.642-6c-0.972-1.992-1.904-4.001-2.88-6
		c-0.51-1.045-1.034-2.151-1.681-3.12c-0.318-0.478-0.479-0.945-0.72-1.44c-0.251-0.515-0.709-0.925-0.96-1.44
		c-0.501-1.027-1.043-2.165-1.682-3.12c-0.32-0.484-0.638-0.957-0.96-1.44c-0.268-0.4-0.731-0.979-0.96-1.44
		c-1.047-2.119-2.501-3.99-3.841-6c-1.354-2.033-2.939-3.931-4.319-6c-1.408-2.114-3.145-3.977-4.8-6
		c-0.841-1.026-1.667-2.146-2.641-3.12c-0.88-0.88-1.81-1.875-2.642-2.88c-3.366-4.065-7.618-8.176-11.76-11.52
		c-1.083-0.874-2.057-1.874-3.118-2.76c-0.94-0.784-1.94-1.51-2.882-2.28c-1.961-1.605-3.983-3.047-6-4.56
		c-3.838-2.879-7.827-5.632-12-8.04c-7.704-4.447-15.728-8.465-24-11.88c-3.897-1.609-7.963-2.928-12-4.16
		c-1.993-0.609-3.999-1.176-6-1.76c-1.989-0.58-4.057-0.911-6-1.64h-1.198c-0.32-0.16-0.643-0.32-0.961-0.48h-1.199
		c0-0.08,0-0.16,0-0.24h-0.961c0-0.08,0-0.16,0-0.24h-1.199c0-0.08,0-0.16,0-0.24h-1.439c0-0.08,0-0.16,0-0.24h-1.439
		c0-0.08,0-0.16,0-0.24h-1.439c0-0.08,0-0.16,0-0.24h-1.438c0-0.08,0-0.16,0-0.24h-1.44c0-0.08,0-0.16,0-0.24h-1.681
		c0-0.08,0-0.16,0-0.24h-1.68c0-0.08,0-0.16,0-0.24h-1.92c0-0.08,0-0.16,0-0.24h-2.16c0-0.08,0-0.16,0-0.24h-2.399
		c0-0.08,0-0.16,0-0.24h-2.64c0-0.08,0-0.16,0-0.24h-3.84c0-0.08,0-0.16,0-0.24h-5.281c0-0.08,0-0.16,0-0.24h-7.439
		c0,0.08,0,0.16,0,0.24h-5.28c0,0.08,0,0.16,0,0.24h-3.6c0,0.08,0,0.16,0,0.24h-2.88c0,0.08,0,0.16,0,0.24h-2.4
		c0,0.08,0,0.16,0,0.24h-2.16c0,0.08,0,0.16,0,0.24h-1.92c0,0.08,0,0.16,0,0.24h-1.68c0,0.08,0,0.16,0,0.24h-1.68
		c0,0.08,0,0.16,0,0.24h-1.44c0,0.08,0,0.16,0,0.24h-1.44c0,0.08,0,0.16,0,0.24h-1.44c0,0.08,0,0.16,0,0.24h-1.44
		c0,0.08,0,0.16,0,0.24h-1.2c0,0.08,0,0.16,0,0.24h-1.2c0,0.08,0,0.16,0,0.24h-1.2c0,0.08,0,0.16,0,0.24h-1.2
		c-0.32,0.16-0.64,0.32-0.96,0.48h-1.2c-2.548,0.956-5.306,1.438-7.92,2.2c-8.156,2.378-16.397,5.039-24,8.84
		c-4.025,2.013-8.117,3.889-12,6.12c-4.117,2.366-8.078,4.826-12,7.44c-8.641,5.761-16.564,12.485-24,19.92
		c-3.877,3.876-7.424,7.877-10.8,12c-3.137,3.831-5.955,7.972-8.64,12c-0.717,1.075-1.456,2.063-2.16,3.12
		c-0.604,0.907-1.08,1.98-1.68,2.88c-0.699,1.047-1.233,2.09-1.92,3.12c-0.285,0.428-0.498,0.983-0.72,1.44
		c-0.251,0.515-0.709,0.925-0.96,1.44c-1.961,4.023-4.02,7.994-6,12c-0.134,0.271-0.104,0.68-0.24,0.96
		c-0.135,0.278-0.343,0.442-0.48,0.72c-0.051,0.103-0.21,0.633-0.24,0.72c-0.087,0.26-0.153,0.46-0.24,0.72
		c-0.327,0.982-0.869,1.888-1.2,2.88c-0.676,2.029-1.724,3.971-2.4,6c-0.666,1.997-1.252,3.995-1.92,6
		c-0.649,1.947-1.35,3.932-1.68,6c-0.039,0.241-0.442,0.719-0.48,0.96c-0.038,0.234,0.037,0.486,0,0.72
		c-0.003,0.018-0.208,0.625-0.24,0.72c-0.086,0.26-0.153,0.46-0.24,0.72c-0.313,0.94-0.409,1.947-0.72,2.88
		c-0.19,0.569-0.141,1.057-0.24,1.68c-0.069,0.431-0.413,0.985-0.48,1.44c-0.148,1.004-0.332,1.876-0.48,2.88
		c-0.043,0.293-0.14,0.659-0.24,0.96c-0.032,0.095-0.237,0.702-0.24,0.72c-0.037,0.234,0.033,0.485,0,0.72
		c-0.038,0.272-0.21,0.533-0.24,0.72c-0.038,0.234,0.033,0.485,0,0.72c-0.038,0.272-0.21,0.534-0.24,0.72
		c-0.037,0.234,0.033,0.485,0,0.72c-0.038,0.272-0.21,0.534-0.24,0.72c-0.324,2.032-0.434,3.961-0.72,6
		c-0.137,0.978-0.337,2.154-0.48,3.12c-0.069,0.47,0.066,0.97,0,1.44c-0.076,0.545-0.24,0.855-0.24,1.44
		c0,1.141-0.24,2.05-0.24,3.12c0,0.48,0,0.96,0,1.44c0,0.594-0.166,0.938-0.24,1.44c-0.146,0.99,0,2.117,0,3.12
		c0,1.067-0.24,1.872-0.24,2.88c0,1.929-0.281,4.094,0,6c0.083,0.562,0.24,1.016,0.24,1.681c0,0.479,0,0.96,0,1.438
		c0,0.479,0,0.961,0,1.439c0,0.594,0.166,0.938,0.24,1.438c0.301,2.039-0.081,3.992,0.24,6c0.05,0.316,0.24,0.532,0.24,0.961
		c0,0.24,0,0.479,0,0.722c0,0.585,0.164,0.896,0.24,1.438c0.144,1.022,0.098,1.869,0.24,2.879c0.279,1.987,0.683,4.024,0.96,6
		c1.16,8.258,3.194,16.305,5.76,24c0.669,2.008,1.252,3.998,1.92,6c0.677,2.03,1.723,3.972,2.4,6c0.685,2.056,1.691,4.056,2.64,6
		c0.251,0.519,0.539,1.138,0.72,1.683c0.178,0.534,0.473,0.934,0.72,1.438c0.468,0.959,0.967,1.909,1.44,2.879
		c0.974,1.998,1.872,4.129,3.12,6c0.637,0.955,1.179,2.094,1.68,3.121c0.486,0.996,1.195,1.897,1.68,2.879
		c0.292,0.592,0.841,1.144,1.2,1.683c0.303,0.454,0.631,0.944,0.96,1.438c0.6,0.899,1.075,1.973,1.68,2.879
		c1.377,2.065,2.958,3.959,4.32,6c1.415,2.123,3.143,4,4.8,6c1.612,1.946,3.206,4.166,5.04,6c3.851,3.853,7.673,8.045,11.76,11.762
		c3.827,3.48,7.881,6.75,12,9.841c3.813,2.858,7.858,5.647,12,8.04c7.717,4.453,15.607,8.865,24,12.119
		c3.966,1.537,7.952,2.972,12,4.318c3.939,1.313,8.119,2.024,12,3.48h1.2c0,0.08,0,0.16,0,0.238h0.96c0,0.08,0,0.16,0,0.24h1.2
		c0,0.079,0,0.159,0,0.239h0.96c0,0.08,0,0.16,0,0.24h1.2c0,0.08,0,0.159,0,0.239h1.2c0,0.078,0,0.158,0,0.238h1.2
		c0,0.08,0,0.16,0,0.24h1.44c0,0.08,0,0.16,0,0.24h1.44c0,0.08,0,0.16,0,0.24h1.44c0,0.078,0,0.158,0,0.238h1.44
		c0,0.079,0,0.159,0,0.239h1.68c0,0.08,0,0.16,0,0.24h1.68c0,0.079,0,0.159,0,0.239h1.92c0,0.08,0,0.158,0,0.238h2.16
		c0,0.08,0,0.16,0,0.24h2.4c0,0.08,0,0.16,0,0.24h2.64c0,0.08,0,0.16,0,0.24h3.36c0,0.08,0,0.158,0,0.237h5.28c0,0.08,0,0.16,0,0.24
		h9.12c0-0.08,0-0.16,0-0.24h5.039c0-0.079,0-0.157,0-0.237h3.359c0-0.08,0-0.16,0-0.24h2.641c0-0.08,0-0.16,0-0.24h2.398
		c0-0.08,0-0.16,0-0.24h2.16c0-0.08,0-0.158,0-0.238h1.92c0-0.08,0-0.16,0-0.239h1.682c0-0.08,0-0.16,0-0.24h1.681
		c0-0.08,0-0.16,0-0.239h1.44c0-0.08,0-0.16,0-0.238h1.438c0-0.08,0-0.16,0-0.24h1.439c0-0.08,0-0.16,0-0.24h1.438
		c0-0.08,0-0.16,0-0.24h1.2c0-0.08,0-0.16,0-0.238h1.199c0-0.08,0-0.159,0-0.239h1.201c0-0.08,0-0.16,0-0.24h1.198
		c0-0.08,0-0.16,0-0.239h0.96c0-0.08,0-0.16,0-0.24h1.199c0-0.078,0-0.158,0-0.238h0.96c2.627-0.984,5.466-1.496,8.16-2.28
		c8.176-2.379,16.388-5.313,24-9.12c8.321-4.16,16.626-8.388,24-13.92c1.969-1.477,4.021-2.849,6-4.32
		c2.054-1.526,4.026-3.154,6-4.799c2.024-1.688,4.129-3.41,6-5.281c1.946-1.944,4.228-3.614,6-5.76c1.664-2.009,3.639-3.979,5.28-6
		c1.668-2.051,3.603-3.844,5.04-6c1.398-2.101,3.168-3.912,4.56-6c1.336-2.002,2.748-4.002,4.08-6c0.68-1.02,1.25-2.113,1.92-3.119
		c0.322-0.482,0.638-0.957,0.96-1.438c0.302-0.451,0.714-0.938,0.96-1.438c0.515-1.041,1.026-2.141,1.681-3.121
		c0.318-0.479,0.479-0.943,0.722-1.438c0.251-0.517,0.709-0.925,0.96-1.44c0.98-2.016,2.121-3.979,3.12-6
		c0.134-0.271,0.104-0.681,0.238-0.959c0.137-0.276,0.347-0.441,0.479-0.721c0.23-0.477,0.48-0.953,0.72-1.439
		c0.219-0.447,0.262-0.99,0.48-1.438c0.247-0.507,0.542-0.903,0.72-1.438c0.363-1.088,0.931-2.09,1.438-3.121
		c0.053-0.104,0.213-0.631,0.24-0.719c0.086-0.262,0.153-0.461,0.239-0.722c0.087-0.26,0.153-0.46,0.24-0.721
		c0.027-0.089,0.188-0.616,0.238-0.722c0.511-1.027,0.839-2.027,1.2-3.119c0.324-0.975,0.874-1.902,1.199-2.881
		c0.664-1.987,1.257-4.008,1.921-6c0.656-1.969,1.022-4.025,1.68-6c0.638-1.905,1.144-3.979,1.439-6
		c0.082-0.551,0.399-1.129,0.48-1.68c0.077-0.535,0.074-0.947,0.238-1.439c0.312-0.932,0.32-1.881,0.479-2.881
		c0.217-0.104,0.297-0.264,0.24-0.479c0-0.16,0-0.32,0-0.48c0.036-0.271,0.21-0.533,0.238-0.72c0.037-0.233-0.031-0.485,0-0.72
		c0.038-0.271,0.21-0.534,0.24-0.721c0.037-0.233-0.033-0.484,0-0.721c0.038-0.271,0.21-0.533,0.239-0.721
		c0.038-0.232-0.032-0.484,0-0.721c0.038-0.271,0.211-0.533,0.24-0.721c0.174-1.088,0.064-2.033,0.238-3.121
		c0.029-0.187,0.201-0.445,0.24-0.719c0.032-0.236-0.033-0.484,0-0.721c0.076-0.545,0.239-0.855,0.239-1.439
		c0-0.666,0.157-1.119,0.24-1.681c0.067-0.47-0.069-0.971,0-1.44c0.072-0.502,0.238-0.846,0.238-1.438c0-0.463-0.065-0.982,0-1.439
		c0.083-0.562,0.24-1.016,0.24-1.681c0-0.465-0.062-0.979,0-1.438c0.131-0.937,0.239-1.834,0.239-2.881c0-2.088,0.24-3.893,0.24-6
		C349.944,179.142,350.246,176.95,349.944,175.06z"/>
	<g>
		<circle fill="#FFFFFF" cx="177.284" cy="172.638" r="142.3"/>
		<path fill="#FFFFFF" d="M177.284,318.936c-80.67,0-146.299-65.629-146.299-146.296c0-80.669,65.629-146.298,146.299-146.298
			c80.67,0,146.3,65.629,146.3,146.298C323.584,253.307,257.954,318.936,177.284,318.936z M177.284,34.34
			c-76.258,0-138.299,62.04-138.299,138.298s62.041,138.297,138.299,138.297c76.259,0,138.3-62.039,138.3-138.297
			S253.543,34.34,177.284,34.34z"/>
	</g>
</g>
<path fill="#FFFFFF" stroke="#000000" stroke-miterlimit="10" d="M265.574,254.707"/>
<circle opacity="0.02" fill="none" stroke="#000000" stroke-width="20" stroke-miterlimit="10" enable-background="new    " cx="177.268" cy="172.393" r="129.303"/>
<ellipse opacity="0.02" fill="none" stroke="#000000" stroke-width="8" stroke-miterlimit="10" enable-background="new    " cx="179.068" cy="173.867" rx="134.322" ry="135.251"/>
<circle opacity="0.02" fill="none" stroke="#000000" stroke-width="9" stroke-miterlimit="10" enable-background="new    " cx="180.125" cy="175.05" r="139.379"/>
<g id="Layer_2">
</g>
<path fill="none" stroke="#00DBFF" stroke-width="12" stroke-miterlimit="10" d="M36.414,189.5c0,0,11.863-29,47.114,0
	c0,0,25.723,25,64.784,0c0,0,23.817-23.814,52.398,7.593c0.001,0.002,12.636,18.277,56.21,0c0,0,33.479-23.807,57.23,0.3"/>
<ellipse fill="none" stroke="#00DBFF" stroke-width="12" stroke-miterlimit="10" cx="93.5" cy="172.093" rx="22" ry="21.5"/>
<line fill="none" stroke="#00DBFF" stroke-width="12" stroke-miterlimit="10" x1="115.5" y1="172.093" x2="247.32" y2="201.906"/>
<polyline fill="none" stroke="#00DBFF" stroke-width="12" stroke-miterlimit="10" points="133.225,175.05 125.5,130.5 93.5,130.5 
	"/>
<ellipse fill="#FFFFFF" cx="529" cy="70" rx="0.5" ry="1.5"/>
<path fill="#FFFFFF" d="M154.32,194.546c-9.396,9.396,12.548-25.209,42.399,7.593"/>
<path fill="none" stroke="#00A4FF" stroke-width="12" stroke-miterlimit="10" d="M38.414,199.5c0,0,11.863-29,47.114,0
	c0,0,25.723,25,64.784,0c0,0,23.817-23.814,52.398,7.593c0.001,0.002,12.636,18.277,56.21,0c0,0,33.479-23.807,57.23,0.3"/>
<path fill="none" stroke="#0089F9" stroke-width="12" stroke-miterlimit="10" d="M40.414,210.5c0,0,11.69-29,46.429,0
	c0,0,25.349,25,63.842,0c0,0,23.471-23.814,51.637,7.593c0.001,0.002,12.452,18.277,55.393,0c0,0,32.992-23.807,56.398,0.3"/>
<path fill="none" stroke="#00A4FF" stroke-width="12" stroke-miterlimit="10" d="M52.985,239.5c0,0,10.395-29,41.281,0
	c0,0,22.538,25,56.763,0c0,0,20.868-23.814,45.911,7.593c0.001,0.002,11.07,18.277,49.249,0c0,0,29.336-23.807,50.146,0.3"/>
<path fill="none" stroke="#0089F9" stroke-width="12" stroke-miterlimit="10" d="M57.985,248.5c0,0,9.933-29,39.446,0
	c0,0,21.536,25,54.24,0c0,0,19.941-23.814,43.871,7.593c0.001,0.002,10.578,18.277,47.061,0c0,0,28.032-23.807,47.917,0.3"/>
<path fill="none" stroke="#00DBFF" stroke-width="12" stroke-miterlimit="10" d="M62.989,260.105c0,0,9.57-29,38.003,0
	c0,0,20.749,25,52.257,0c0,0,19.212-23.814,42.267,7.593c0.001,0.002,10.192,18.276,45.342,0c0,0,27.005-23.808,46.162,0.3"/>
<path fill="none" stroke="#00DBFF" stroke-width="12" stroke-miterlimit="10" d="M40.004,219.235c0,0,11.829-28.891,45.899,0.429
	c0,0,24.826,25.233,63.113,0.59c0,0,23.426-23.596,50.977,8.07c0.001,0.002,12.138,18.392,54.76,0.512c0,0,32.841-23.5,55.753,0.821
	"/>
<circle fill="none" stroke="#00DBFF" stroke-width="12" stroke-miterlimit="10" cx="176.2" cy="172.093" r="142.7"/>
</svg>
